<?xml version="1.0" encoding="UTF-8" standalone="no"?>
<svg
   version="1.1"
   width="841.88977pt"
   height="595.27557pt"
   id="svg32"
   viewBox="0 0 841.88977 595.27557"
   sodipodi:docname="404f2495a79f2d285d11f292dca247ab_49c989c0bdfc4cdf10c7ca14b50d5ef1_8.cdr"
   xmlns:inkscape="http://www.inkscape.org/namespaces/inkscape"
   xmlns:sodipodi="http://sodipodi.sourceforge.net/DTD/sodipodi-0.dtd"
   xmlns="http://www.w3.org/2000/svg"
   xmlns:svg="http://www.w3.org/2000/svg">
  <defs
     id="defs36" />
  <sodipodi:namedview
     id="namedview34"
     pagecolor="#ffffff"
     bordercolor="#000000"
     borderopacity="0.25"
     inkscape:showpageshadow="2"
     inkscape:pageopacity="0.0"
     inkscape:pagecheckerboard="0"
     inkscape:deskcolor="#d1d1d1"
     inkscape:document-units="pt" />
  <path
     d="m 430.3896,406.6296 v -69.9774 h 31.7897 c 7.598,0 14.3122,1.4496 20.1436,4.3489 5.8317,2.8987 10.3637,6.9806 13.5955,12.2456 3.2324,5.2651 4.8487,11.3962 4.8487,18.3943 0,6.9979 -1.6163,13.129 -4.8487,18.3941 -3.2318,5.265 -7.7638,9.3469 -13.5955,12.2456 -5.8314,2.8993 -12.5456,4.3489 -20.1436,4.3489 z m 30.9898,-13.2959 c 6.9979,0 12.5796,-1.9494 16.7448,-5.8481 4.1658,-3.8988 6.2481,-9.18 6.2481,-15.8446 0,-6.6645 -2.0823,-11.946 -6.2481,-15.8448 -4.1652,-3.8988 -9.7469,-5.8481 -16.7448,-5.8481 h -14.7951 v 43.3856 z"
     style="fill:#005a96;fill-rule:evenodd"
     id="path2" />
  <path
     d="m 301.1312,407.8295 c -7.2641,0 -13.8124,-1.5667 -19.6438,-4.6987 -5.8311,-3.1325 -10.3966,-7.4477 -13.6953,-12.9458 -3.2992,-5.4984 -4.9484,-11.6796 -4.9484,-18.544 0,-6.8646 1.6492,-13.0459 4.9484,-18.5445 3.2987,-5.4978 7.8642,-9.813 13.6953,-12.9455 5.8314,-3.132 12.3797,-4.6987 19.6438,-4.6987 7.2641,0 13.7957,1.5667 19.5937,4.6987 5.7979,3.1325 10.3637,7.4477 13.6958,12.9455 3.3324,5.4986 4.9984,11.6799 4.9984,18.5445 0,6.8644 -1.666,13.0456 -4.9984,18.544 -3.3321,5.4981 -7.8979,9.8133 -13.6958,12.9458 -5.798,3.132 -12.3296,4.6987 -19.5937,4.6987 z m 0,-13.7959 c 4.1321,0 7.8645,-0.9499 11.1966,-2.8491 3.3324,-1.8989 5.9479,-4.5485 7.8471,-7.9475 1.8998,-3.399 2.8491,-7.2641 2.8491,-11.596 0,-4.3321 -0.9493,-8.1972 -2.8491,-11.5962 -1.8992,-3.399 -4.5147,-6.0486 -7.8471,-7.9478 -3.3321,-1.8992 -7.0645,-2.8488 -11.1966,-2.8488 -4.1321,0 -7.8641,0.9496 -11.1966,2.8488 -3.3321,1.8992 -5.9479,4.5488 -7.8471,7.9478 -1.8998,3.399 -2.8491,7.2641 -2.8491,11.5962 0,4.3319 0.9493,8.197 2.8491,11.596 1.8992,3.399 4.515,6.0486 7.8471,7.9475 3.3325,1.8992 7.0645,2.8491 11.1966,2.8491 z"
     style="fill:#005a96;fill-rule:evenodd"
     id="path4" />
  <path
     d="M 423.8991,306.1332 H 398.73 l 4.1301,-20.9131 h 22.7534 c 44.9161,0 51.5656,-78.1671 10.7995,-78.1671 h -28.1126 l -29.34,9.2231 6.027,-30.1354 h 57.9396 c 72.7679,0 64.4936,119.9925 -19.0279,119.9925 z"
     style="fill:#005a96;fill-rule:evenodd"
     id="path6" />
  <path
     d="m 338.3586,229.0388 4.0329,-20.2714 h -38.3979 l 4.6282,-22.6267 h 66.3395 c -2.2865,11.175 -4.5556,22.354 -6.8142,33.535 z"
     style="fill:#005a96;fill-rule:evenodd"
     id="path8" />
  <path
     d="m 336.0951,240.4157 1.6388,-8.237 19.3524,-6.0834 29.34,-9.2234 v 6e-4 l 21.2462,-6.679 -1.6478,8.2403 -29.3405,9.2231 v -3e-4 l -21.2463,6.6787 v -2e-4 z"
     style="fill:#e30016;fill-rule:evenodd"
     id="path10" />
  <path
     d="m 333.832,251.7917 1.6384,-8.237 29.747,-9.3506 v 6e-4 l 10.8389,-3.4073 v -5e-4 l 29.3406,-9.2226 -1.6484,8.2398 -19.0706,5.9944 -3e-4,0.001 -29.3406,9.2231 3e-4,-0.001 z"
     style="fill:#e30016;fill-rule:evenodd"
     id="path12" />
  <path
     d="m 331.5685,263.1677 1.6387,-8.2364 29.7213,-9.3427 -3e-4,10e-4 10.8516,-3.4112 3e-4,-0.001 29.34,-9.2231 -0.4763,2.3825 h 0.006 l -1.1554,5.8501 -16.9175,5.3178 -2e-4,0.002 -29.3406,9.2234 3e-4,-0.002 z"
     style="fill:#e30016;fill-rule:evenodd"
     id="path14" />
  <path
     d="m 329.3053,274.5442 1.6384,-8.2366 29.7006,-9.3356 -3e-4,0.002 10.8598,-3.4138 6e-4,-0.002 29.3701,-9.2322 -1.626,8.2327 -14.7722,4.644 -6e-4,0.002 -29.3405,9.2231 5e-4,-0.003 z"
     style="fill:#e30016;fill-rule:evenodd"
     id="path16" />
  <path
     d="m 327.0424,285.9205 1.6382,-8.2369 29.6821,-9.33 -6e-4,0.003 10.8655,-3.4155 6e-4,-0.003 29.4007,-9.2418 -1.6254,8.2327 -12.6281,3.9696 -6e-4,0.003 -29.3405,9.2231 5e-4,-0.003 z"
     style="fill:#e30016;fill-rule:evenodd"
     id="path18" />
  <path
     d="m 324.779,297.2965 1.6387,-8.2369 29.6651,-9.3246 v 6e-4 l 10.8695,-3.4169 v -3e-4 l 29.4307,-9.2514 -1.6254,8.2327 -14.7371,4.6323 -2e-4,10e-4 -29.3409,9.2231 3e-4,-10e-4 z"
     style="fill:#e30016;fill-rule:evenodd"
     id="path20" />
  <path
     d="m 350.7905,306.1332 h -27.769 l 1.133,-5.6965 29.6475,-9.32 z"
     style="fill:#005a96;fill-rule:evenodd"
     id="path22" />
  <path
     d="m 394.1374,278.4376 -4.5375,22.9771 -0.9317,4.7185 h -27.6789 l 3.6867,-18.4345 z"
     style="fill:#005a96;fill-rule:evenodd"
     id="path24" />
  <path
     d="m 581.2413,406.6296 h -16.9946 c -7.4531,-18.032 -14.9264,-36.0558 -22.3926,-54.0825 -7.4755,18.0491 -15.0344,36.0378 -22.4929,54.0825 h -16.5946 l 31.1902,-69.9774 h 15.9945 z"
     style="fill:#005a96;fill-rule:evenodd"
     id="path26" />
  <path
     d="m 382.7052,407.8295 c -9.9966,0 -17.7777,-2.7657 -23.343,-8.2972 -5.5644,-5.5316 -8.3469,-13.4297 -8.3469,-23.6929 v -39.1872 h 16.1946 v 38.5877 c 0,12.5291 5.1985,18.7937 15.5951,18.7937 5.065,0 8.9306,-1.5162 11.5965,-4.5485 2.6655,-3.0322 3.9986,-7.7811 3.9986,-14.2452 v -38.5877 h 15.995 v 39.1872 c 0,10.2632 -2.7827,18.1613 -8.3474,23.6929 -5.5653,5.5315 -13.3455,8.2972 -23.3425,8.2972 z"
     style="fill:#005a96;fill-rule:evenodd"
     id="path28" />
  <path
     d="m 237.1518,406.6296 h -16.1951 v -56.7819 h -22.3926 v -13.1955 h 60.9803 v 13.1955 h -22.3926 z"
     style="fill:#005a96;fill-rule:evenodd"
     id="path30" />
</svg>
